<svg xmlns="http://www.w3.org/2000/svg" xmlns:xlink="http://www.w3.org/1999/xlink" width="2000" zoomAndPan="magnify" viewBox="0 0 1500 1499.999933" height="2000" preserveAspectRatio="xMidYMid meet" version="1.0"><path fill="#7724e1" d="M 1500.003906 1271.925781 C 1500.003906 1397.804688 1397.953125 1499.855469 1272.066406 1499.855469 L 227.980469 1499.855469 C 102.097656 1499.855469 0.0585938 1397.804688 0.0585938 1271.925781 L 0.0585938 227.835938 C 0.0585938 101.949219 102.097656 -0.09375 227.980469 -0.09375 L 1272.066406 -0.09375 C 1397.957031 -0.09375 1500.007812 101.949219 1500.007812 227.835938 L 1500.007812 1271.925781 Z M 1500.003906 1271.925781 " fill-opacity="1" fill-rule="nonzero"/><path fill="#ffffff" d="M 593.167969 535.046875 C 593.167969 536.882812 593.121094 538.714844 593.03125 540.546875 C 592.941406 542.378906 592.804688 544.207031 592.625 546.03125 C 592.445312 547.855469 592.222656 549.675781 591.953125 551.488281 C 591.683594 553.300781 591.371094 555.109375 591.011719 556.90625 C 590.65625 558.707031 590.253906 560.496094 589.808594 562.273438 C 589.363281 564.050781 588.875 565.820312 588.339844 567.574219 C 587.808594 569.328125 587.234375 571.070312 586.617188 572.796875 C 586 574.523438 585.339844 576.234375 584.636719 577.925781 C 583.933594 579.621094 583.191406 581.296875 582.40625 582.957031 C 581.625 584.613281 580.800781 586.25 579.933594 587.867188 C 579.070312 589.484375 578.167969 591.078125 577.222656 592.652344 C 576.28125 594.226562 575.300781 595.773438 574.28125 597.300781 C 573.261719 598.824219 572.207031 600.324219 571.117188 601.796875 C 570.023438 603.269531 568.894531 604.714844 567.730469 606.132812 C 566.570312 607.550781 565.371094 608.9375 564.140625 610.296875 C 562.90625 611.65625 561.644531 612.984375 560.347656 614.277344 C 559.050781 615.574219 557.722656 616.839844 556.363281 618.070312 C 555.003906 619.304688 553.617188 620.5 552.199219 621.664062 C 550.78125 622.828125 549.335938 623.953125 547.863281 625.046875 C 546.390625 626.140625 544.890625 627.195312 543.367188 628.214844 C 541.84375 629.234375 540.292969 630.214844 538.722656 631.15625 C 537.148438 632.097656 535.554688 633.003906 533.9375 633.867188 C 532.320312 634.730469 530.679688 635.554688 529.023438 636.339844 C 527.367188 637.125 525.691406 637.867188 523.996094 638.570312 C 522.300781 639.269531 520.589844 639.929688 518.863281 640.546875 C 517.136719 641.164062 515.398438 641.742188 513.640625 642.273438 C 511.886719 642.804688 510.121094 643.292969 508.339844 643.738281 C 506.5625 644.183594 504.773438 644.585938 502.976562 644.945312 C 501.175781 645.300781 499.371094 645.617188 497.558594 645.886719 C 495.742188 646.152344 493.921875 646.378906 492.097656 646.558594 C 490.273438 646.738281 488.445312 646.875 486.613281 646.964844 C 484.78125 647.054688 482.949219 647.097656 481.117188 647.097656 C 479.28125 647.097656 477.449219 647.054688 475.617188 646.964844 C 473.785156 646.875 471.957031 646.738281 470.132812 646.558594 C 468.308594 646.378906 466.488281 646.152344 464.675781 645.886719 C 462.859375 645.617188 461.054688 645.300781 459.253906 644.945312 C 457.457031 644.585938 455.667969 644.183594 453.890625 643.738281 C 452.109375 643.292969 450.34375 642.804688 448.589844 642.273438 C 446.835938 641.742188 445.09375 641.164062 443.367188 640.546875 C 441.640625 639.929688 439.929688 639.269531 438.234375 638.570312 C 436.542969 637.867188 434.867188 637.125 433.207031 636.339844 C 431.550781 635.554688 429.914062 634.730469 428.296875 633.867188 C 426.679688 633.003906 425.082031 632.097656 423.511719 631.15625 C 421.9375 630.214844 420.386719 629.234375 418.863281 628.214844 C 417.339844 627.195312 415.839844 626.140625 414.367188 625.046875 C 412.894531 623.953125 411.449219 622.828125 410.03125 621.664062 C 408.613281 620.5 407.226562 619.304688 405.867188 618.070312 C 404.507812 616.839844 403.179688 615.574219 401.882812 614.277344 C 400.585938 612.980469 399.324219 611.65625 398.089844 610.296875 C 396.859375 608.9375 395.664062 607.550781 394.5 606.132812 C 393.335938 604.714844 392.207031 603.269531 391.117188 601.796875 C 390.023438 600.324219 388.96875 598.824219 387.949219 597.300781 C 386.929688 595.773438 385.949219 594.226562 385.007812 592.652344 C 384.0625 591.078125 383.160156 589.484375 382.296875 587.867188 C 381.429688 586.25 380.605469 584.613281 379.824219 582.957031 C 379.039062 581.296875 378.296875 579.621094 377.59375 577.925781 C 376.894531 576.234375 376.234375 574.523438 375.613281 572.796875 C 374.996094 571.070312 374.421875 569.328125 373.890625 567.574219 C 373.359375 565.820312 372.867188 564.050781 372.421875 562.273438 C 371.976562 560.496094 371.574219 558.707031 371.21875 556.90625 C 370.859375 555.109375 370.546875 553.300781 370.277344 551.488281 C 370.007812 549.675781 369.785156 547.855469 369.605469 546.03125 C 369.425781 544.207031 369.289062 542.378906 369.199219 540.546875 C 369.109375 538.714844 369.066406 536.882812 369.066406 535.046875 C 369.066406 533.214844 369.109375 531.382812 369.199219 529.550781 C 369.289062 527.71875 369.425781 525.890625 369.605469 524.066406 C 369.785156 522.238281 370.007812 520.421875 370.277344 518.605469 C 370.546875 516.792969 370.859375 514.984375 371.21875 513.1875 C 371.574219 511.390625 371.976562 509.601562 372.421875 507.820312 C 372.867188 506.042969 373.359375 504.277344 373.890625 502.519531 C 374.421875 500.765625 374.996094 499.023438 375.613281 497.296875 C 376.234375 495.570312 376.894531 493.863281 377.59375 492.167969 C 378.296875 490.472656 379.039062 488.796875 379.824219 487.140625 C 380.605469 485.480469 381.429688 483.84375 382.296875 482.226562 C 383.160156 480.609375 384.0625 479.015625 385.007812 477.441406 C 385.949219 475.867188 386.929688 474.320312 387.949219 472.796875 C 388.96875 471.269531 390.023438 469.773438 391.117188 468.300781 C 392.207031 466.824219 393.335938 465.378906 394.5 463.964844 C 395.664062 462.546875 396.859375 461.15625 398.089844 459.796875 C 399.324219 458.441406 400.585938 457.113281 401.882812 455.816406 C 403.179688 454.519531 404.507812 453.253906 405.867188 452.023438 C 407.226562 450.792969 408.613281 449.59375 410.03125 448.429688 C 411.449219 447.269531 412.894531 446.140625 414.367188 445.046875 C 415.839844 443.957031 417.339844 442.898438 418.863281 441.878906 C 420.386719 440.863281 421.9375 439.882812 423.511719 438.9375 C 425.082031 437.996094 426.679688 437.09375 428.296875 436.226562 C 429.914062 435.363281 431.550781 434.539062 433.207031 433.753906 C 434.867188 432.972656 436.542969 432.226562 438.234375 431.527344 C 439.929688 430.824219 441.640625 430.164062 443.367188 429.546875 C 445.09375 428.929688 446.835938 428.355469 448.589844 427.820312 C 450.34375 427.289062 452.109375 426.800781 453.890625 426.355469 C 455.667969 425.910156 457.457031 425.507812 459.253906 425.148438 C 461.054688 424.792969 462.859375 424.480469 464.675781 424.210938 C 466.488281 423.941406 468.308594 423.714844 470.132812 423.535156 C 471.957031 423.355469 473.785156 423.222656 475.617188 423.132812 C 477.449219 423.042969 479.28125 422.996094 481.117188 422.996094 C 482.949219 422.996094 484.78125 423.042969 486.613281 423.132812 C 488.445312 423.222656 490.273438 423.355469 492.097656 423.535156 C 493.921875 423.714844 495.742188 423.941406 497.558594 424.210938 C 499.371094 424.480469 501.175781 424.792969 502.976562 425.148438 C 504.773438 425.507812 506.5625 425.910156 508.339844 426.355469 C 510.121094 426.800781 511.886719 427.289062 513.640625 427.820312 C 515.398438 428.355469 517.136719 428.929688 518.863281 429.546875 C 520.589844 430.164062 522.300781 430.824219 523.996094 431.527344 C 525.691406 432.226562 527.367188 432.972656 529.023438 433.753906 C 530.679688 434.539062 532.320312 435.363281 533.9375 436.226562 C 535.554688 437.09375 537.148438 437.996094 538.722656 438.9375 C 540.292969 439.882812 541.84375 440.863281 543.367188 441.878906 C 544.890625 442.898438 546.390625 443.953125 547.863281 445.046875 C 549.335938 446.140625 550.78125 447.269531 552.199219 448.429688 C 553.617188 449.59375 555.003906 450.792969 556.363281 452.023438 C 557.722656 453.253906 559.050781 454.519531 560.347656 455.816406 C 561.644531 457.113281 562.90625 458.441406 564.140625 459.796875 C 565.371094 461.15625 566.570312 462.546875 567.730469 463.964844 C 568.894531 465.378906 570.023438 466.824219 571.117188 468.300781 C 572.207031 469.773438 573.261719 471.269531 574.28125 472.796875 C 575.300781 474.320312 576.28125 475.867188 577.222656 477.441406 C 578.167969 479.015625 579.070312 480.609375 579.933594 482.226562 C 580.800781 483.84375 581.625 485.480469 582.40625 487.140625 C 583.191406 488.796875 583.933594 490.472656 584.636719 492.167969 C 585.339844 493.863281 586 495.570312 586.617188 497.296875 C 587.234375 499.023438 587.808594 500.765625 588.339844 502.519531 C 588.875 504.277344 589.363281 506.042969 589.808594 507.820312 C 590.253906 509.601562 590.65625 511.390625 591.011719 513.1875 C 591.371094 514.984375 591.683594 516.792969 591.953125 518.605469 C 592.222656 520.421875 592.445312 522.238281 592.625 524.066406 C 592.804688 525.890625 592.941406 527.71875 593.03125 529.550781 C 593.121094 531.382812 593.167969 533.214844 593.167969 535.046875 Z M 593.167969 535.046875 " fill-opacity="1" fill-rule="nonzero"/><path fill="#ffffff" d="M 384.519531 729.707031 L 577.019531 729.707031 L 577.019531 1348.972656 L 384.519531 1348.972656 Z M 384.519531 729.707031 " fill-opacity="1" fill-rule="nonzero"/><path fill="#ffffff" d="M 698.089844 729.707031 L 881.3125 729.707031 L 881.3125 1348.972656 L 698.089844 1348.972656 Z M 698.089844 729.707031 " fill-opacity="1" fill-rule="nonzero"/><path fill="#ffffff" d="M 706.011719 1059.421875 L 889.222656 1059.421875 L 889.222656 1348.972656 L 706.011719 1348.972656 Z M 706.011719 1059.421875 " fill-opacity="1" fill-rule="nonzero"/><path fill="#ffffff" d="M 889.222656 1059.421875 C 889.222656 1059.421875 886.359375 979.101562 907.542969 937.339844 C 907.542969 937.339844 928.730469 885.90625 995.316406 885.597656 C 995.316406 885.597656 1073.40625 871.964844 1095.800781 949.449219 C 1095.800781 949.449219 1104.277344 992.421875 1104.277344 1010.589844 C 1104.277344 1028.757812 1104.882812 1348.976562 1104.882812 1348.976562 L 1296.773438 1348.976562 L 1296.773438 994.25 C 1296.773438 994.25 1310.699219 793.875 1190.433594 738.984375 C 1190.433594 738.984375 992.683594 650.207031 885.351562 813.246094 C 885.351562 813.246094 861.941406 829.382812 858.710938 784.183594 C 855.476562 738.984375 828.039062 853.597656 827.230469 856.027344 C 826.421875 858.445312 858.710938 1084.441406 858.710938 1084.441406 Z M 889.222656 1059.421875 " fill-opacity="1" fill-rule="nonzero"/></svg>