<svg xmlns="http://www.w3.org/2000/svg" xmlns:xlink="http://www.w3.org/1999/xlink" width="2000" zoomAndPan="magnify" viewBox="0 0 1500 1499.999933" height="2000" preserveAspectRatio="xMidYMid meet" version="1.0"><defs><clipPath id="edfa5d7be6"><path d="M 177 178 L 1328.433594 178 L 1328.433594 1333.84375 L 177 1333.84375 Z M 177 178 " clip-rule="nonzero"/></clipPath></defs><path fill="#7724e1" d="M 1500.003906 1271.925781 C 1500.003906 1397.804688 1397.953125 1499.855469 1272.066406 1499.855469 L 227.980469 1499.855469 C 102.097656 1499.855469 0.0585938 1397.804688 0.0585938 1271.925781 L 0.0585938 227.835938 C 0.0585938 101.949219 102.097656 -0.09375 227.980469 -0.09375 L 1272.066406 -0.09375 C 1397.957031 -0.09375 1500.007812 101.949219 1500.007812 227.835938 L 1500.007812 1271.925781 Z M 1500.003906 1271.925781 " fill-opacity="1" fill-rule="nonzero"/><path fill="#7724e1" d="M 593.167969 535.046875 C 593.167969 536.882812 593.121094 538.714844 593.03125 540.546875 C 592.941406 542.378906 592.804688 544.207031 592.625 546.03125 C 592.445312 547.855469 592.222656 549.675781 591.953125 551.488281 C 591.683594 553.300781 591.371094 555.109375 591.011719 556.90625 C 590.65625 558.707031 590.253906 560.496094 589.808594 562.273438 C 589.363281 564.050781 588.875 565.820312 588.339844 567.574219 C 587.808594 569.328125 587.234375 571.070312 586.617188 572.796875 C 586 574.523438 585.339844 576.234375 584.636719 577.925781 C 583.933594 579.621094 583.191406 581.296875 582.40625 582.957031 C 581.625 584.613281 580.800781 586.25 579.933594 587.867188 C 579.070312 589.484375 578.167969 591.078125 577.222656 592.652344 C 576.28125 594.226562 575.300781 595.773438 574.28125 597.300781 C 573.261719 598.824219 572.207031 600.324219 571.117188 601.796875 C 570.023438 603.269531 568.894531 604.714844 567.730469 606.132812 C 566.570312 607.550781 565.371094 608.9375 564.140625 610.296875 C 562.90625 611.65625 561.644531 612.984375 560.347656 614.277344 C 559.050781 615.574219 557.722656 616.839844 556.363281 618.070312 C 555.003906 619.304688 553.617188 620.5 552.199219 621.664062 C 550.78125 622.828125 549.335938 623.953125 547.863281 625.046875 C 546.390625 626.140625 544.890625 627.195312 543.367188 628.214844 C 541.84375 629.234375 540.292969 630.214844 538.722656 631.15625 C 537.148438 632.097656 535.554688 633.003906 533.9375 633.867188 C 532.320312 634.730469 530.679688 635.554688 529.023438 636.339844 C 527.367188 637.125 525.691406 637.867188 523.996094 638.570312 C 522.300781 639.269531 520.589844 639.929688 518.863281 640.546875 C 517.136719 641.164062 515.398438 641.742188 513.640625 642.273438 C 511.886719 642.804688 510.121094 643.292969 508.339844 643.738281 C 506.5625 644.183594 504.773438 644.585938 502.976562 644.945312 C 501.175781 645.300781 499.371094 645.617188 497.558594 645.886719 C 495.742188 646.152344 493.921875 646.378906 492.097656 646.558594 C 490.273438 646.738281 488.445312 646.875 486.613281 646.964844 C 484.78125 647.054688 482.949219 647.097656 481.117188 647.097656 C 479.28125 647.097656 477.449219 647.054688 475.617188 646.964844 C 473.785156 646.875 471.957031 646.738281 470.132812 646.558594 C 468.308594 646.378906 466.488281 646.152344 464.675781 645.886719 C 462.859375 645.617188 461.054688 645.300781 459.253906 644.945312 C 457.457031 644.585938 455.667969 644.183594 453.890625 643.738281 C 452.109375 643.292969 450.34375 642.804688 448.589844 642.273438 C 446.835938 641.742188 445.09375 641.164062 443.367188 640.546875 C 441.640625 639.929688 439.929688 639.269531 438.234375 638.570312 C 436.542969 637.867188 434.867188 637.125 433.207031 636.339844 C 431.550781 635.554688 429.914062 634.730469 428.296875 633.867188 C 426.679688 633.003906 425.082031 632.097656 423.511719 631.15625 C 421.9375 630.214844 420.386719 629.234375 418.863281 628.214844 C 417.339844 627.195312 415.839844 626.140625 414.367188 625.046875 C 412.894531 623.953125 411.449219 622.828125 410.03125 621.664062 C 408.613281 620.5 407.226562 619.304688 405.867188 618.070312 C 404.507812 616.839844 403.179688 615.574219 401.882812 614.277344 C 400.585938 612.980469 399.324219 611.65625 398.089844 610.296875 C 396.859375 608.9375 395.664062 607.550781 394.5 606.132812 C 393.335938 604.714844 392.207031 603.269531 391.117188 601.796875 C 390.023438 600.324219 388.96875 598.824219 387.949219 597.300781 C 386.929688 595.773438 385.949219 594.226562 385.007812 592.652344 C 384.0625 591.078125 383.160156 589.484375 382.296875 587.867188 C 381.429688 586.25 380.605469 584.613281 379.824219 582.957031 C 379.039062 581.296875 378.296875 579.621094 377.59375 577.925781 C 376.894531 576.234375 376.234375 574.523438 375.613281 572.796875 C 374.996094 571.070312 374.421875 569.328125 373.890625 567.574219 C 373.359375 565.820312 372.867188 564.050781 372.421875 562.273438 C 371.976562 560.496094 371.574219 558.707031 371.21875 556.90625 C 370.859375 555.109375 370.546875 553.300781 370.277344 551.488281 C 370.007812 549.675781 369.785156 547.855469 369.605469 546.03125 C 369.425781 544.207031 369.289062 542.378906 369.199219 540.546875 C 369.109375 538.714844 369.066406 536.882812 369.066406 535.046875 C 369.066406 533.214844 369.109375 531.382812 369.199219 529.550781 C 369.289062 527.71875 369.425781 525.890625 369.605469 524.066406 C 369.785156 522.238281 370.007812 520.421875 370.277344 518.605469 C 370.546875 516.792969 370.859375 514.984375 371.21875 513.1875 C 371.574219 511.390625 371.976562 509.601562 372.421875 507.820312 C 372.867188 506.042969 373.359375 504.277344 373.890625 502.519531 C 374.421875 500.765625 374.996094 499.023438 375.613281 497.296875 C 376.234375 495.570312 376.894531 493.863281 377.59375 492.167969 C 378.296875 490.472656 379.039062 488.796875 379.824219 487.140625 C 380.605469 485.480469 381.429688 483.84375 382.296875 482.226562 C 383.160156 480.609375 384.0625 479.015625 385.007812 477.441406 C 385.949219 475.867188 386.929688 474.320312 387.949219 472.796875 C 388.96875 471.269531 390.023438 469.773438 391.117188 468.300781 C 392.207031 466.824219 393.335938 465.378906 394.5 463.964844 C 395.664062 462.546875 396.859375 461.15625 398.089844 459.796875 C 399.324219 458.441406 400.585938 457.113281 401.882812 455.816406 C 403.179688 454.519531 404.507812 453.253906 405.867188 452.023438 C 407.226562 450.792969 408.613281 449.59375 410.03125 448.429688 C 411.449219 447.269531 412.894531 446.140625 414.367188 445.046875 C 415.839844 443.957031 417.339844 442.898438 418.863281 441.878906 C 420.386719 440.863281 421.9375 439.882812 423.511719 438.9375 C 425.082031 437.996094 426.679688 437.09375 428.296875 436.226562 C 429.914062 435.363281 431.550781 434.539062 433.207031 433.753906 C 434.867188 432.972656 436.542969 432.226562 438.234375 431.527344 C 439.929688 430.824219 441.640625 430.164062 443.367188 429.546875 C 445.09375 428.929688 446.835938 428.355469 448.589844 427.820312 C 450.34375 427.289062 452.109375 426.800781 453.890625 426.355469 C 455.667969 425.910156 457.457031 425.507812 459.253906 425.148438 C 461.054688 424.792969 462.859375 424.480469 464.675781 424.210938 C 466.488281 423.941406 468.308594 423.714844 470.132812 423.535156 C 471.957031 423.355469 473.785156 423.222656 475.617188 423.132812 C 477.449219 423.042969 479.28125 422.996094 481.117188 422.996094 C 482.949219 422.996094 484.78125 423.042969 486.613281 423.132812 C 488.445312 423.222656 490.273438 423.355469 492.097656 423.535156 C 493.921875 423.714844 495.742188 423.941406 497.558594 424.210938 C 499.371094 424.480469 501.175781 424.792969 502.976562 425.148438 C 504.773438 425.507812 506.5625 425.910156 508.339844 426.355469 C 510.121094 426.800781 511.886719 427.289062 513.640625 427.820312 C 515.398438 428.355469 517.136719 428.929688 518.863281 429.546875 C 520.589844 430.164062 522.300781 430.824219 523.996094 431.527344 C 525.691406 432.226562 527.367188 432.972656 529.023438 433.753906 C 530.679688 434.539062 532.320312 435.363281 533.9375 436.226562 C 535.554688 437.09375 537.148438 437.996094 538.722656 438.9375 C 540.292969 439.882812 541.84375 440.863281 543.367188 441.878906 C 544.890625 442.898438 546.390625 443.953125 547.863281 445.046875 C 549.335938 446.140625 550.78125 447.269531 552.199219 448.429688 C 553.617188 449.59375 555.003906 450.792969 556.363281 452.023438 C 557.722656 453.253906 559.050781 454.519531 560.347656 455.816406 C 561.644531 457.113281 562.90625 458.441406 564.140625 459.796875 C 565.371094 461.15625 566.570312 462.546875 567.730469 463.964844 C 568.894531 465.378906 570.023438 466.824219 571.117188 468.300781 C 572.207031 469.773438 573.261719 471.269531 574.28125 472.796875 C 575.300781 474.320312 576.28125 475.867188 577.222656 477.441406 C 578.167969 479.015625 579.070312 480.609375 579.933594 482.226562 C 580.800781 483.84375 581.625 485.480469 582.40625 487.140625 C 583.191406 488.796875 583.933594 490.472656 584.636719 492.167969 C 585.339844 493.863281 586 495.570312 586.617188 497.296875 C 587.234375 499.023438 587.808594 500.765625 588.339844 502.519531 C 588.875 504.277344 589.363281 506.042969 589.808594 507.820312 C 590.253906 509.601562 590.65625 511.390625 591.011719 513.1875 C 591.371094 514.984375 591.683594 516.792969 591.953125 518.605469 C 592.222656 520.421875 592.445312 522.238281 592.625 524.066406 C 592.804688 525.890625 592.941406 527.71875 593.03125 529.550781 C 593.121094 531.382812 593.167969 533.214844 593.167969 535.046875 Z M 593.167969 535.046875 " fill-opacity="1" fill-rule="nonzero"/><path fill="#7724e1" d="M 384.519531 729.707031 L 577.019531 729.707031 L 577.019531 1348.972656 L 384.519531 1348.972656 Z M 384.519531 729.707031 " fill-opacity="1" fill-rule="nonzero"/><path fill="#7724e1" d="M 698.089844 729.707031 L 881.3125 729.707031 L 881.3125 1348.972656 L 698.089844 1348.972656 Z M 698.089844 729.707031 " fill-opacity="1" fill-rule="nonzero"/><path fill="#7724e1" d="M 706.011719 1059.421875 L 889.222656 1059.421875 L 889.222656 1348.972656 L 706.011719 1348.972656 Z M 706.011719 1059.421875 " fill-opacity="1" fill-rule="nonzero"/><path fill="#7724e1" d="M 889.222656 1059.421875 C 889.222656 1059.421875 886.359375 979.101562 907.542969 937.339844 C 907.542969 937.339844 928.730469 885.90625 995.316406 885.597656 C 995.316406 885.597656 1073.40625 871.964844 1095.800781 949.449219 C 1095.800781 949.449219 1104.277344 992.421875 1104.277344 1010.589844 C 1104.277344 1028.757812 1104.882812 1348.976562 1104.882812 1348.976562 L 1296.773438 1348.976562 L 1296.773438 994.25 C 1296.773438 994.25 1310.699219 793.875 1190.433594 738.984375 C 1190.433594 738.984375 992.683594 650.207031 885.351562 813.246094 C 885.351562 813.246094 861.941406 829.382812 858.710938 784.183594 C 855.476562 738.984375 828.039062 853.597656 827.230469 856.027344 C 826.421875 858.445312 858.710938 1084.441406 858.710938 1084.441406 Z M 889.222656 1059.421875 " fill-opacity="1" fill-rule="nonzero"/><g clip-path="url(#edfa5d7be6)"><path fill="#ffffff" d="M 1000.875 1333.84375 C 998.984375 1333.84375 997.09375 1333.75 995.210938 1333.5625 C 993.324219 1333.378906 991.457031 1333.101562 989.597656 1332.730469 C 987.742188 1332.363281 985.90625 1331.902344 984.09375 1331.351562 C 982.285156 1330.804688 980.503906 1330.167969 978.753906 1329.441406 C 977.003906 1328.71875 975.296875 1327.910156 973.625 1327.015625 C 971.957031 1326.125 970.335938 1325.152344 968.761719 1324.101562 C 967.1875 1323.046875 965.667969 1321.921875 964.203125 1320.722656 C 962.742188 1319.519531 961.339844 1318.25 960 1316.910156 C 958.660156 1315.574219 957.390625 1314.171875 956.191406 1312.707031 C 954.988281 1311.246094 953.863281 1309.726562 952.8125 1308.152344 C 951.757812 1306.578125 950.789062 1304.957031 949.894531 1303.285156 C 949.003906 1301.617188 948.195312 1299.90625 947.46875 1298.15625 C 946.746094 1296.410156 946.109375 1294.628906 945.558594 1292.816406 C 945.007812 1291.003906 944.550781 1289.171875 944.179688 1287.3125 C 943.8125 1285.457031 943.535156 1283.585938 943.347656 1281.703125 C 943.164062 1279.816406 943.070312 1277.929688 943.070312 1276.035156 L 943.070312 1125.738281 C 943.515625 1121.429688 943.738281 1117.109375 943.734375 1112.773438 C 943.730469 1108.441406 943.5 1104.121094 943.042969 1099.808594 C 942.585938 1095.5 941.90625 1091.226562 941.003906 1086.988281 C 940.101562 1082.75 938.980469 1078.570312 937.640625 1074.449219 C 936.296875 1070.328125 934.746094 1066.289062 932.984375 1062.332031 C 931.21875 1058.371094 929.253906 1054.515625 927.089844 1050.761719 C 924.921875 1047.011719 922.566406 1043.382812 920.019531 1039.875 C 917.472656 1036.367188 914.753906 1033.003906 911.855469 1029.78125 C 910.0625 1027.839844 908.414062 1025.785156 906.90625 1023.617188 C 905.394531 1021.449219 904.042969 1019.1875 902.84375 1016.832031 C 901.644531 1014.476562 900.609375 1012.054688 899.746094 1009.558594 C 898.878906 1007.0625 898.1875 1004.519531 897.667969 1001.929688 C 897.148438 999.339844 896.8125 996.726562 896.652344 994.089844 C 896.492188 991.453125 896.511719 988.816406 896.714844 986.183594 C 896.917969 983.546875 897.296875 980.941406 897.855469 978.359375 C 898.414062 975.777344 899.148438 973.246094 900.054688 970.761719 C 900.960938 968.28125 902.03125 965.875 903.269531 963.539062 C 904.503906 961.207031 905.894531 958.964844 907.4375 956.824219 C 908.984375 954.679688 910.664062 952.648438 912.488281 950.738281 C 914.308594 948.824219 916.25 947.042969 918.316406 945.398438 C 920.382812 943.75 922.550781 942.25 924.824219 940.902344 C 927.09375 939.550781 929.445312 938.363281 931.878906 937.335938 C 934.3125 936.308594 936.804688 935.453125 939.359375 934.769531 C 941.910156 934.082031 944.496094 933.574219 947.117188 933.246094 C 1088.164062 916.480469 1218.226562 871.390625 1218.226562 626.871094 C 1218.238281 615.519531 1217.417969 604.226562 1215.765625 592.992188 C 1214.113281 581.757812 1211.644531 570.707031 1208.367188 559.839844 C 1205.085938 548.96875 1201.027344 538.398438 1196.1875 528.128906 C 1191.351562 517.855469 1185.789062 507.996094 1179.496094 498.542969 C 1176.613281 494.21875 1173.949219 489.769531 1171.503906 485.183594 C 1169.054688 480.601562 1166.839844 475.910156 1164.851562 471.109375 C 1162.867188 466.3125 1161.121094 461.425781 1159.613281 456.453125 C 1158.105469 451.480469 1156.84375 446.449219 1155.828125 441.355469 C 1154.816406 436.257812 1154.054688 431.125 1153.542969 425.957031 C 1153.03125 420.785156 1152.773438 415.605469 1152.773438 410.410156 C 1152.769531 405.214844 1153.019531 400.03125 1153.527344 394.859375 C 1154.03125 389.691406 1154.789062 384.558594 1155.796875 379.460938 C 1158.402344 366 1159.703125 352.417969 1159.703125 338.707031 C 1159.703125 325 1158.402344 311.414062 1155.796875 297.953125 C 1134.152344 305.273438 1113.203125 314.214844 1092.949219 324.777344 C 1072.691406 335.34375 1053.367188 347.402344 1034.980469 360.964844 C 1033.25 362.195312 1031.453125 363.324219 1029.59375 364.359375 C 1027.738281 365.390625 1025.828125 366.316406 1023.867188 367.140625 C 1021.910156 367.960938 1019.910156 368.675781 1017.871094 369.273438 C 1015.832031 369.875 1013.765625 370.363281 1011.675781 370.738281 C 1009.582031 371.113281 1007.476562 371.367188 1005.355469 371.511719 C 1003.234375 371.652344 1001.113281 371.675781 998.988281 371.582031 C 996.863281 371.488281 994.753906 371.28125 992.652344 370.957031 C 990.550781 370.628906 988.476562 370.1875 986.425781 369.632812 C 973.460938 365.972656 960.386719 362.757812 947.203125 359.996094 C 934.019531 357.234375 920.757812 354.929688 907.414062 353.078125 C 894.070312 351.230469 880.679688 349.84375 867.242188 348.914062 C 853.804688 347.988281 840.347656 347.527344 826.878906 347.527344 C 813.410156 347.527344 799.953125 347.988281 786.515625 348.914062 C 773.078125 349.84375 759.6875 351.230469 746.34375 353.078125 C 733 354.929688 719.738281 357.234375 706.554688 359.996094 C 693.371094 362.757812 680.296875 365.972656 667.332031 369.632812 C 665.28125 370.1875 663.207031 370.628906 661.105469 370.957031 C 659.003906 371.28125 656.894531 371.488281 654.769531 371.582031 C 652.644531 371.675781 650.523438 371.652344 648.402344 371.511719 C 646.28125 371.367188 644.175781 371.113281 642.082031 370.738281 C 639.992188 370.363281 637.925781 369.875 635.886719 369.273438 C 633.847656 368.675781 631.847656 367.960938 629.890625 367.140625 C 627.929688 366.316406 626.019531 365.390625 624.164062 364.359375 C 622.304688 363.324219 620.507812 362.195312 618.777344 360.964844 C 600.277344 347.246094 580.796875 335.105469 560.335938 324.535156 C 539.875 313.964844 518.699219 305.105469 496.804688 297.953125 C 494.058594 311.398438 492.683594 324.984375 492.683594 338.707031 C 492.683594 352.429688 494.058594 366.015625 496.804688 379.460938 C 497.742188 384.625 498.429688 389.820312 498.867188 395.050781 C 499.304688 400.277344 499.492188 405.515625 499.425781 410.761719 C 499.363281 416.011719 499.046875 421.242188 498.484375 426.457031 C 497.917969 431.675781 497.101562 436.851562 496.039062 441.992188 C 494.976562 447.128906 493.671875 452.207031 492.125 457.21875 C 490.574219 462.230469 488.789062 467.160156 486.769531 472.003906 C 484.746094 476.84375 482.496094 481.578125 480.023438 486.207031 C 477.546875 490.832031 474.855469 495.328125 471.949219 499.699219 C 465.683594 509.21875 460.140625 519.140625 455.320312 529.464844 C 450.496094 539.789062 446.445312 550.410156 443.167969 561.324219 C 439.890625 572.238281 437.417969 583.332031 435.75 594.601562 C 434.082031 605.875 433.238281 617.210938 433.21875 628.605469 C 433.21875 853.472656 541.894531 913.589844 704.90625 934.402344 C 707.5625 934.730469 710.179688 935.242188 712.761719 935.933594 C 715.347656 936.628906 717.867188 937.496094 720.332031 938.539062 C 722.792969 939.582031 725.171875 940.789062 727.46875 942.160156 C 729.761719 943.535156 731.949219 945.058594 734.035156 946.734375 C 736.117188 948.414062 738.074219 950.226562 739.90625 952.171875 C 741.738281 954.121094 743.425781 956.1875 744.972656 958.371094 C 746.515625 960.554688 747.902344 962.832031 749.132812 965.207031 C 750.359375 967.582031 751.421875 970.03125 752.308594 972.554688 C 753.144531 975 753.816406 977.496094 754.316406 980.03125 C 754.816406 982.570312 755.148438 985.128906 755.304688 987.710938 C 755.464844 990.296875 755.449219 992.875 755.261719 995.457031 C 755.070312 998.035156 754.710938 1000.59375 754.179688 1003.125 C 753.648438 1005.65625 752.949219 1008.140625 752.085938 1010.578125 C 751.21875 1013.015625 750.195312 1015.386719 749.011719 1017.6875 C 747.828125 1019.988281 746.496094 1022.199219 745.015625 1024.320312 C 743.535156 1026.441406 741.921875 1028.453125 740.167969 1030.359375 C 737.367188 1033.355469 734.726562 1036.488281 732.246094 1039.757812 C 729.765625 1043.027344 727.460938 1046.417969 725.332031 1049.925781 C 723.203125 1053.433594 721.261719 1057.039062 719.503906 1060.75 C 717.75 1064.457031 716.1875 1068.246094 714.824219 1072.117188 C 713.460938 1075.988281 712.296875 1079.917969 711.339844 1083.90625 C 710.382812 1087.898438 709.632812 1091.925781 709.089844 1095.992188 C 708.550781 1100.0625 708.21875 1104.144531 708.097656 1108.246094 C 707.980469 1112.347656 708.070312 1116.445312 708.375 1120.539062 L 708.375 1276.035156 C 708.375 1277.929688 708.285156 1279.816406 708.097656 1281.703125 C 707.914062 1283.585938 707.632812 1285.457031 707.265625 1287.3125 C 706.894531 1289.171875 706.4375 1291.003906 705.886719 1292.816406 C 705.335938 1294.628906 704.699219 1296.410156 703.976562 1298.15625 C 703.25 1299.90625 702.441406 1301.617188 701.550781 1303.285156 C 700.65625 1304.957031 699.6875 1306.578125 698.632812 1308.152344 C 697.582031 1309.726562 696.457031 1311.246094 695.253906 1312.707031 C 694.054688 1314.171875 692.785156 1315.574219 691.445312 1316.910156 C 690.105469 1318.25 688.707031 1319.519531 687.242188 1320.722656 C 685.777344 1321.921875 684.257812 1323.046875 682.683594 1324.101562 C 681.109375 1325.152344 679.488281 1326.125 677.820312 1327.015625 C 676.148438 1327.910156 674.441406 1328.71875 672.691406 1329.441406 C 670.941406 1330.167969 669.160156 1330.804688 667.351562 1331.351562 C 665.539062 1331.902344 663.703125 1332.363281 661.847656 1332.730469 C 659.992188 1333.101562 658.121094 1333.378906 656.234375 1333.5625 C 654.351562 1333.75 652.464844 1333.84375 650.570312 1333.84375 C 648.675781 1333.84375 646.789062 1333.75 644.902344 1333.5625 C 643.019531 1333.378906 641.148438 1333.101562 639.292969 1332.730469 C 637.4375 1332.363281 635.601562 1331.902344 633.789062 1331.351562 C 631.976562 1330.804688 630.199219 1330.167969 628.449219 1329.441406 C 626.699219 1328.71875 624.988281 1327.910156 623.320312 1327.015625 C 621.652344 1326.125 620.027344 1325.152344 618.453125 1324.101562 C 616.878906 1323.046875 615.363281 1321.921875 613.898438 1320.722656 C 612.433594 1319.519531 611.035156 1318.25 609.695312 1316.910156 C 608.355469 1315.574219 607.085938 1314.171875 605.886719 1312.707031 C 604.683594 1311.246094 603.558594 1309.726562 602.503906 1308.152344 C 601.453125 1306.578125 600.480469 1304.957031 599.589844 1303.285156 C 598.695312 1301.617188 597.886719 1299.90625 597.164062 1298.15625 C 596.4375 1296.410156 595.800781 1294.628906 595.253906 1292.816406 C 594.703125 1291.003906 594.242188 1289.171875 593.875 1287.3125 C 593.503906 1285.457031 593.226562 1283.585938 593.042969 1281.703125 C 592.855469 1279.816406 592.761719 1277.929688 592.761719 1276.035156 L 592.761719 1243.085938 C 585.695312 1243.898438 578.613281 1244.496094 571.507812 1244.871094 C 564.40625 1245.246094 557.296875 1245.40625 550.183594 1245.34375 C 543.070312 1245.285156 535.96875 1245.003906 528.871094 1244.507812 C 521.773438 1244.011719 514.703125 1243.296875 507.648438 1242.363281 C 500.597656 1241.429688 493.582031 1240.28125 486.601562 1238.917969 C 479.617188 1237.550781 472.6875 1235.972656 465.800781 1234.183594 C 458.917969 1232.390625 452.09375 1230.390625 445.335938 1228.179688 C 438.574219 1225.96875 431.886719 1223.550781 425.273438 1220.929688 C 418.664062 1218.308594 412.136719 1215.484375 405.699219 1212.460938 C 399.261719 1209.4375 392.921875 1206.21875 386.679688 1202.804688 C 380.4375 1199.390625 374.308594 1195.789062 368.289062 1191.996094 C 362.273438 1188.207031 356.375 1184.234375 350.601562 1180.078125 C 344.828125 1175.925781 339.183594 1171.597656 333.675781 1167.097656 C 328.167969 1162.597656 322.804688 1157.929688 317.582031 1153.097656 C 312.363281 1148.269531 307.292969 1143.28125 302.378906 1138.136719 C 297.464844 1132.996094 292.714844 1127.707031 288.125 1122.273438 C 278.644531 1111.765625 268.265625 1102.234375 256.992188 1093.679688 C 245.71875 1085.125 233.742188 1077.699219 221.070312 1071.402344 C 219.234375 1070.929688 217.421875 1070.367188 215.640625 1069.71875 C 213.859375 1069.066406 212.113281 1068.332031 210.40625 1067.507812 C 208.695312 1066.6875 207.03125 1065.78125 205.410156 1064.796875 C 203.789062 1063.808594 202.21875 1062.746094 200.703125 1061.609375 C 199.1875 1060.46875 197.730469 1059.257812 196.335938 1057.972656 C 194.9375 1056.691406 193.605469 1055.339844 192.34375 1053.925781 C 191.078125 1052.515625 189.886719 1051.042969 188.765625 1049.511719 C 187.644531 1047.980469 186.601562 1046.398438 185.640625 1044.765625 C 184.675781 1043.128906 183.792969 1041.453125 182.992188 1039.734375 C 182.195312 1038.011719 181.480469 1036.257812 180.851562 1034.46875 C 180.226562 1032.679688 179.6875 1030.859375 179.238281 1029.019531 C 178.792969 1027.175781 178.433594 1025.316406 178.167969 1023.4375 C 177.902344 1021.558594 177.730469 1019.671875 177.648438 1017.777344 C 177.570312 1015.882812 177.582031 1013.988281 177.6875 1012.09375 C 177.792969 1010.199219 177.992188 1008.316406 178.28125 1006.441406 C 178.574219 1004.566406 178.957031 1002.710938 179.429688 1000.875 C 179.902344 999.035156 180.464844 997.226562 181.117188 995.445312 C 181.769531 993.664062 182.503906 991.917969 183.328125 990.210938 C 184.148438 988.5 185.054688 986.835938 186.042969 985.214844 C 187.027344 983.59375 188.089844 982.027344 189.230469 980.511719 C 190.371094 978.996094 191.582031 977.539062 192.867188 976.144531 C 194.152344 974.746094 195.5 973.417969 196.914062 972.152344 C 198.328125 970.886719 199.800781 969.695312 201.332031 968.578125 C 202.863281 967.457031 204.445312 966.417969 206.082031 965.453125 C 207.714844 964.488281 209.390625 963.605469 211.113281 962.808594 C 212.832031 962.007812 214.585938 961.296875 216.378906 960.671875 C 218.167969 960.042969 219.984375 959.507812 221.828125 959.058594 C 223.671875 958.609375 225.53125 958.253906 227.410156 957.988281 C 229.289062 957.722656 231.175781 957.550781 233.070312 957.472656 C 234.964844 957.390625 236.859375 957.40625 238.753906 957.511719 C 240.648438 957.617188 242.53125 957.816406 244.40625 958.109375 C 246.28125 958.402344 248.136719 958.785156 249.972656 959.257812 C 261.046875 963.292969 271.828125 967.996094 282.320312 973.367188 C 292.808594 978.738281 302.929688 984.738281 312.675781 991.367188 C 322.421875 997.992188 331.71875 1005.199219 340.574219 1012.980469 C 349.425781 1020.761719 357.761719 1029.058594 365.585938 1037.875 C 423.390625 1095.679688 481.199219 1146.550781 591.03125 1125.738281 C 590.0625 1110.222656 590.699219 1094.769531 592.941406 1079.382812 C 595.179688 1063.996094 598.976562 1049.003906 604.324219 1034.40625 C 485.242188 1004.347656 315.292969 918.792969 315.292969 629.761719 C 315.273438 621.261719 315.566406 612.773438 316.171875 604.292969 C 316.777344 595.816406 317.695312 587.371094 318.921875 578.960938 C 320.144531 570.546875 321.679688 562.195312 323.519531 553.894531 C 325.359375 545.597656 327.503906 537.378906 329.949219 529.234375 C 332.390625 521.09375 335.132812 513.054688 338.167969 505.117188 C 341.203125 497.175781 344.527344 489.359375 348.136719 481.664062 C 351.75 473.96875 355.636719 466.417969 359.804688 459.007812 C 363.96875 451.597656 368.402344 444.351562 373.101562 437.269531 C 374.839844 434.660156 376.320312 431.910156 377.535156 429.015625 C 378.75 426.125 379.675781 423.144531 380.320312 420.074219 C 380.964844 417.003906 381.3125 413.902344 381.359375 410.765625 C 381.410156 407.628906 381.160156 404.515625 380.613281 401.429688 C 379.164062 393.679688 377.992188 385.886719 377.101562 378.054688 C 376.210938 370.21875 375.605469 362.367188 375.277344 354.488281 C 374.953125 346.609375 374.910156 338.730469 375.152344 330.851562 C 375.394531 322.972656 375.917969 315.109375 376.722656 307.269531 C 377.527344 299.425781 378.617188 291.621094 379.984375 283.859375 C 381.351562 276.09375 382.996094 268.386719 384.917969 260.742188 C 386.835938 253.097656 389.03125 245.527344 391.496094 238.039062 C 393.960938 230.550781 396.695312 223.160156 399.691406 215.871094 C 400.507812 213.917969 401.429688 212.019531 402.457031 210.167969 C 403.480469 208.316406 404.605469 206.527344 405.828125 204.800781 C 407.050781 203.074219 408.363281 201.421875 409.765625 199.839844 C 411.171875 198.253906 412.65625 196.753906 414.226562 195.335938 C 415.796875 193.914062 417.4375 192.585938 419.152344 191.347656 C 420.867188 190.109375 422.644531 188.96875 424.484375 187.921875 C 426.324219 186.878906 428.214844 185.9375 430.160156 185.101562 C 432.101562 184.265625 434.085938 183.539062 436.109375 182.921875 C 455.761719 177.140625 526.285156 165.578125 659.820312 252.289062 C 673.273438 249.050781 686.808594 246.210938 700.429688 243.773438 C 714.050781 241.335938 727.730469 239.304688 741.472656 237.671875 C 755.210938 236.042969 768.988281 234.820312 782.800781 234.003906 C 796.617188 233.1875 810.441406 232.777344 824.277344 232.777344 C 838.113281 232.777344 851.941406 233.1875 865.753906 234.003906 C 879.566406 234.820312 893.34375 236.042969 907.082031 237.671875 C 920.824219 239.304688 934.503906 241.335938 948.125 243.773438 C 961.746094 246.210938 975.285156 249.050781 988.738281 252.289062 C 1122.269531 165.578125 1192.792969 176.5625 1211.867188 182.921875 C 1213.890625 183.539062 1215.875 184.265625 1217.816406 185.101562 C 1219.761719 185.9375 1221.652344 186.878906 1223.492188 187.921875 C 1225.332031 188.96875 1227.109375 190.109375 1228.824219 191.347656 C 1230.539062 192.585938 1232.183594 193.914062 1233.75 195.335938 C 1235.320312 196.753906 1236.804688 198.253906 1238.210938 199.839844 C 1239.613281 201.421875 1240.925781 203.074219 1242.148438 204.800781 C 1243.371094 206.527344 1244.496094 208.316406 1245.523438 210.167969 C 1246.546875 212.019531 1247.46875 213.917969 1248.285156 215.871094 C 1251.289062 223.183594 1254.027344 230.597656 1256.496094 238.113281 C 1258.964844 245.625 1261.164062 253.214844 1263.085938 260.886719 C 1265.011719 268.554688 1266.660156 276.285156 1268.027344 284.074219 C 1269.394531 291.863281 1270.484375 299.691406 1271.289062 307.558594 C 1272.097656 315.425781 1272.617188 323.308594 1272.859375 331.214844 C 1273.097656 339.121094 1273.054688 347.023438 1272.726562 354.921875 C 1272.394531 362.824219 1271.785156 370.703125 1270.890625 378.5625 C 1269.996094 386.417969 1268.820312 394.234375 1267.363281 402.007812 C 1266.769531 404.824219 1266.464844 407.675781 1266.441406 410.554688 C 1266.417969 413.4375 1266.679688 416.292969 1267.226562 419.121094 C 1267.769531 421.949219 1268.589844 424.695312 1269.683594 427.363281 C 1270.777344 430.027344 1272.121094 432.558594 1273.722656 434.957031 C 1278.433594 442.058594 1282.878906 449.328125 1287.054688 456.757812 C 1291.230469 464.1875 1295.125 471.761719 1298.746094 479.480469 C 1302.363281 487.199219 1305.691406 495.042969 1308.730469 503.003906 C 1311.769531 510.96875 1314.511719 519.035156 1316.957031 527.199219 C 1319.402344 535.367188 1321.542969 543.613281 1323.378906 551.9375 C 1325.21875 560.257812 1326.746094 568.640625 1327.964844 577.078125 C 1329.183594 585.511719 1330.089844 593.984375 1330.683594 602.488281 C 1331.28125 610.988281 1331.558594 619.503906 1331.527344 628.027344 C 1331.527344 921.105469 1162.734375 1006.082031 1042.496094 1032.671875 C 1047.792969 1048.179688 1051.511719 1064.058594 1053.652344 1080.308594 C 1055.792969 1096.558594 1056.3125 1112.855469 1055.214844 1129.207031 L 1055.214844 1276.035156 C 1055.214844 1277.859375 1055.132812 1279.679688 1054.964844 1281.492188 C 1054.796875 1283.308594 1054.542969 1285.113281 1054.203125 1286.902344 C 1053.863281 1288.695312 1053.441406 1290.464844 1052.933594 1292.214844 C 1052.425781 1293.964844 1051.839844 1295.691406 1051.167969 1297.386719 C 1050.5 1299.082031 1049.75 1300.742188 1048.921875 1302.363281 C 1048.097656 1303.988281 1047.195312 1305.570312 1046.21875 1307.109375 C 1045.242188 1308.648438 1044.195312 1310.140625 1043.074219 1311.578125 C 1041.957031 1313.019531 1040.773438 1314.402344 1039.527344 1315.734375 C 1038.277344 1317.0625 1036.96875 1318.328125 1035.601562 1319.53125 C 1034.234375 1320.734375 1032.8125 1321.875 1031.335938 1322.941406 C 1029.859375 1324.011719 1028.335938 1325.011719 1026.765625 1325.9375 C 1025.195312 1326.863281 1023.585938 1327.710938 1021.933594 1328.484375 C 1020.28125 1329.257812 1018.601562 1329.953125 1016.882812 1330.566406 C 1015.167969 1331.179688 1013.425781 1331.710938 1011.660156 1332.164062 C 1009.890625 1332.613281 1008.109375 1332.976562 1006.308594 1333.257812 C 1004.503906 1333.539062 1002.695312 1333.734375 1000.875 1333.84375 Z M 1000.875 1333.84375 " fill-opacity="1" fill-rule="nonzero"/></g></svg>